<svg width="151" height="23" viewBox="0 0 151 23" fill="none" xmlns="http://www.w3.org/2000/svg">
<path fill-rule="evenodd" clip-rule="evenodd" d="M102.659 4.9091C102.557 4.04546 102.142 3.37501 101.415 2.89773C100.688 2.42046 99.7955 2.18182 98.7386 2.18182C97.9659 2.18182 97.2898 2.30682 96.7102 2.55682C96.1364 2.80682 95.6875 3.15057 95.3636 3.58807C95.0455 4.02557 94.8864 4.52273 94.8864 5.07955C94.8864 5.54546 94.9972 5.94603 95.2188 6.28126C95.446 6.6108 95.7358 6.88637 96.0881 7.10796C96.4404 7.32387 96.8097 7.50285 97.196 7.64489C97.5824 7.78126 97.9375 7.89205 98.2614 7.97728L100.034 8.45455C100.489 8.57387 100.994 8.73864 101.551 8.94887C102.114 9.1591 102.651 9.44603 103.162 9.80967C103.679 10.1676 104.105 10.6278 104.44 11.1903C104.776 11.7528 104.943 12.4432 104.943 13.2614C104.943 14.2046 104.696 15.0568 104.202 15.8182C103.713 16.5796 102.997 17.1847 102.054 17.6335C101.116 18.0824 99.9773 18.3068 98.6364 18.3068C97.3864 18.3068 96.304 18.1051 95.3892 17.7017C94.4801 17.2983 93.7642 16.7358 93.2415 16.0142C92.7244 15.2926 92.4318 14.4546 92.3636 13.5H94.5455C94.6023 14.1591 94.8239 14.7046 95.2102 15.1364C95.6023 15.5625 96.0966 15.8807 96.6932 16.0909C97.2955 16.2955 97.9432 16.3977 98.6364 16.3977C99.4432 16.3977 100.168 16.2671 100.81 16.0057C101.452 15.7386 101.96 15.3693 102.335 14.8977C102.71 14.4205 102.898 13.8636 102.898 13.2273C102.898 12.6477 102.736 12.1761 102.412 11.8125C102.088 11.4489 101.662 11.1534 101.134 10.9261C100.605 10.6989 100.034 10.5 99.4205 10.3296L97.2727 9.71592C95.9091 9.32387 94.8296 8.76421 94.0341 8.03694C93.2386 7.30967 92.8409 6.35796 92.8409 5.18182C92.8409 4.20455 93.1051 3.35228 93.6335 2.62501C94.1676 1.89205 94.8835 1.32387 95.7813 0.92046C96.6847 0.511369 97.6932 0.306824 98.8068 0.306824C99.9318 0.306824 100.932 0.508528 101.807 0.911937C102.682 1.30966 103.375 1.85512 103.886 2.5483C104.403 3.24148 104.676 4.02841 104.705 4.9091H102.659ZM113.839 4.9091V6.61364H111.043V14.25C111.043 14.8182 111.126 15.2443 111.29 15.5284C111.461 15.8068 111.677 15.9943 111.938 16.0909C112.205 16.1818 112.487 16.2273 112.782 16.2273C113.004 16.2273 113.185 16.2159 113.327 16.1932L113.668 16.125L114.077 17.9318C113.941 17.983 113.751 18.0341 113.506 18.0852C113.262 18.1421 112.952 18.1705 112.577 18.1705C112.009 18.1705 111.452 18.0483 110.907 17.804C110.367 17.5597 109.918 17.1875 109.56 16.6875C109.208 16.1875 109.032 15.5568 109.032 14.7955V6.61364H107.055V4.9091H109.032V1.77273H111.043V4.9091H113.839ZM118.931 17.429C119.823 17.9915 120.86 18.2727 122.042 18.2727C123.224 18.2727 124.258 17.9915 125.144 17.429C126.036 16.8665 126.729 16.0796 127.224 15.0682C127.724 14.0568 127.974 12.875 127.974 11.5227C127.974 10.1591 127.724 8.96876 127.224 7.95171C126.729 6.93466 126.036 6.14489 125.144 5.58239C124.258 5.01989 123.224 4.73864 122.042 4.73864C120.86 4.73864 119.823 5.01989 118.931 5.58239C118.045 6.14489 117.352 6.93466 116.852 7.95171C116.357 8.96876 116.11 10.1591 116.11 11.5227C116.11 12.875 116.357 14.0568 116.852 15.0682C117.352 16.0796 118.045 16.8665 118.931 17.429ZM124.258 15.7756C123.678 16.2358 122.94 16.4659 122.042 16.4659C121.144 16.4659 120.406 16.2358 119.826 15.7756C119.246 15.3153 118.817 14.7102 118.539 13.9602C118.261 13.2102 118.121 12.3977 118.121 11.5227C118.121 10.6477 118.261 9.83239 118.539 9.07671C118.817 8.32103 119.246 7.71023 119.826 7.24432C120.406 6.77842 121.144 6.54546 122.042 6.54546C122.94 6.54546 123.678 6.77842 124.258 7.24432C124.837 7.71023 125.266 8.32103 125.545 9.07671C125.823 9.83239 125.962 10.6477 125.962 11.5227C125.962 12.3977 125.823 13.2102 125.545 13.9602C125.266 14.7102 124.837 15.3153 124.258 15.7756ZM131.044 18V4.9091H132.987V6.88637H133.124C133.362 6.23864 133.794 5.71307 134.419 5.30966C135.044 4.90626 135.749 4.70455 136.533 4.70455C136.68 4.70455 136.865 4.70739 137.087 4.71307C137.308 4.71876 137.476 4.72728 137.59 4.73864V6.7841C137.521 6.76705 137.365 6.74148 137.121 6.70739C136.882 6.66762 136.629 6.64773 136.362 6.64773C135.726 6.64773 135.158 6.78126 134.658 7.0483C134.163 7.30966 133.771 7.6733 133.482 8.13921C133.197 8.59944 133.055 9.12501 133.055 9.71592V18H131.044ZM141.8 17.4375C142.715 17.9943 143.803 18.2727 145.064 18.2727C145.95 18.2727 146.749 18.1364 147.459 17.8636C148.169 17.5852 148.766 17.1989 149.249 16.7046C149.732 16.2046 150.075 15.625 150.28 14.9659L148.337 14.4205C148.166 14.875 147.925 15.2557 147.612 15.5625C147.3 15.8636 146.928 16.0909 146.496 16.2443C146.07 16.3921 145.592 16.4659 145.064 16.4659C144.251 16.4659 143.538 16.2898 142.925 15.9375C142.311 15.5796 141.831 15.0597 141.484 14.3778C141.175 13.7545 141.006 13.0073 140.977 12.1364H150.484V11.2841C150.484 10.0625 150.322 9.0341 149.999 8.19887C149.675 7.36364 149.24 6.69319 148.695 6.18751C148.149 5.67614 147.544 5.30682 146.879 5.07955C146.215 4.85228 145.541 4.73864 144.859 4.73864C143.678 4.73864 142.643 5.02842 141.757 5.60796C140.876 6.18182 140.189 6.98296 139.695 8.01137C139.206 9.0341 138.962 10.2159 138.962 11.5568C138.962 12.8977 139.206 14.0739 139.695 15.0852C140.189 16.0909 140.891 16.875 141.8 17.4375ZM140.983 10.3977C141.021 9.79049 141.174 9.21662 141.442 8.67614C141.754 8.04546 142.2 7.5341 142.78 7.14205C143.365 6.74432 144.058 6.54546 144.859 6.54546C145.587 6.54546 146.217 6.71307 146.751 7.0483C147.291 7.38353 147.706 7.84091 147.996 8.42046C148.291 9.00001 148.439 9.6591 148.439 10.3977H140.983ZM27.517 18H33.7045C35.4773 18 37 17.6506 38.2727 16.9517C39.5511 16.2529 40.5312 15.25 41.2131 13.9432C41.9006 12.6364 42.2443 11.0739 42.2443 9.2557C42.2443 7.4432 41.9006 5.88638 41.2131 4.58524C40.5312 3.28411 39.5568 2.28695 38.2898 1.59377C37.0227 0.894903 35.5113 0.545471 33.7557 0.545471H27.517V18ZM33.5511 14.8381H31.2074V3.7074H33.5596C34.6506 3.7074 35.5682 3.90059 36.3125 4.28695C37.0568 4.67331 37.6165 5.27559 37.9915 6.09377C38.3721 6.91195 38.5625 7.96593 38.5625 9.2557C38.5625 10.5568 38.3721 11.6193 37.9915 12.4432C37.6165 13.2614 37.054 13.8665 36.304 14.2585C35.5596 14.6449 34.642 14.8381 33.5511 14.8381ZM43.0476 18H47.0021L48.2969 14.0199H54.599L55.8913 18H59.8459L53.8288 0.545471H49.0731L43.0476 18ZM53.6637 11.1392L51.5192 4.53411H51.3828L49.234 11.1392H53.6637ZM61.8785 22.9091V4.90911H65.4581V7.10797H65.62C65.7791 6.7557 66.0092 6.39774 66.3104 6.03411C66.6172 5.66479 67.0149 5.35797 67.5035 5.11365C67.9979 4.86365 68.6115 4.73865 69.3444 4.73865C70.299 4.73865 71.1797 4.98865 71.9865 5.48865C72.7933 5.98297 73.4382 6.73013 73.9212 7.73013C74.4041 8.72445 74.6456 9.97161 74.6456 11.4716C74.6456 12.9318 74.4098 14.1648 73.9382 15.1705C73.4723 16.1705 72.8359 16.929 72.0291 17.446C71.228 17.9574 70.3302 18.2131 69.3359 18.2131C68.6314 18.2131 68.0319 18.0966 67.5376 17.8637C67.049 17.6307 66.6484 17.3381 66.3359 16.9858C66.0234 16.6279 65.7848 16.2671 65.62 15.9034H65.5092V22.9091H61.8785ZM65.4325 11.4546C65.4325 12.233 65.5405 12.9119 65.7564 13.4915C65.9723 14.071 66.2848 14.5227 66.6939 14.8466C67.103 15.1648 67.6001 15.3239 68.1854 15.3239C68.7763 15.3239 69.2763 15.1619 69.6854 14.8381C70.0944 14.5085 70.4041 14.054 70.6143 13.4744C70.8302 12.8892 70.9382 12.2159 70.9382 11.4546C70.9382 10.6989 70.8331 10.0341 70.6229 9.46024C70.4126 8.88638 70.103 8.43752 69.6939 8.11365C69.2848 7.78979 68.7819 7.62786 68.1854 7.62786C67.5944 7.62786 67.0944 7.78411 66.6854 8.09661C66.2819 8.40911 65.9723 8.85229 65.7564 9.42615C65.5405 10 65.4325 10.6762 65.4325 11.4546ZM77.066 4.90911V22.9091H80.6967V15.9034H80.8075C80.9723 16.2671 81.2109 16.6279 81.5234 16.9858C81.8359 17.3381 82.2365 17.6307 82.7251 17.8637C83.2194 18.0966 83.8189 18.2131 84.5234 18.2131C85.5177 18.2131 86.4155 17.9574 87.2166 17.446C88.0234 16.929 88.6598 16.1705 89.1257 15.1705C89.5973 14.1648 89.8331 12.9318 89.8331 11.4716C89.8331 9.97161 89.5916 8.72445 89.1087 7.73013C88.6257 6.73013 87.9808 5.98297 87.174 5.48865C86.3672 4.98865 85.4865 4.73865 84.5319 4.73865C83.799 4.73865 83.1854 4.86365 82.691 5.11365C82.2024 5.35797 81.8047 5.66479 81.4979 6.03411C81.1967 6.39774 80.9666 6.7557 80.8075 7.10797H80.6456V4.90911H77.066ZM80.9439 13.4915C80.728 12.9119 80.62 12.233 80.62 11.4546C80.62 10.6762 80.728 10 80.9439 9.42615C81.1598 8.85229 81.4694 8.40911 81.8729 8.09661C82.2819 7.78411 82.7819 7.62786 83.3729 7.62786C83.9694 7.62786 84.4723 7.78979 84.8814 8.11365C85.2905 8.43752 85.6001 8.88638 85.8104 9.46024C86.0206 10.0341 86.1257 10.6989 86.1257 11.4546C86.1257 12.2159 86.0177 12.8892 85.8018 13.4744C85.5916 14.054 85.2819 14.5085 84.8729 14.8381C84.4638 15.1619 83.9638 15.3239 83.3729 15.3239C82.7876 15.3239 82.2905 15.1648 81.8814 14.8466C81.4723 14.5227 81.1598 14.071 80.9439 13.4915Z" fill="black"/>
<path d="M0 3C0 1.34315 1.34315 0 3 0H16C17.6569 0 19 1.34315 19 3V16C19 17.6569 17.6569 19 16 19H3C1.34315 19 0 17.6569 0 16V3Z" fill="black"/>
<path fill-rule="evenodd" clip-rule="evenodd" d="M10.7482 15.2353H8.25179C8.43349 15.7494 8.92374 16.1176 9.50001 16.1176C10.0763 16.1176 10.5665 15.7494 10.7482 15.2353ZM8.17648 14.3529H10.8235V12.5882L8.17648 12.5882V14.3529ZM7.29413 12.5882V14.3529H6.41177C5.43715 14.3529 4.64706 13.5629 4.64706 12.5882L7.29413 12.5882ZM8.17648 11.7059H10.8235V8.17648H8.17648V11.7059ZM7.29413 8.17648V11.7059H4.64706L4.64706 8.17648H7.29413ZM8.17648 7.29413H10.8235V4.64706H8.17648V7.29413ZM7.29413 4.64706V7.29413H4.64706V6.41177C4.64706 5.43715 5.43715 4.64706 6.41177 4.64706H7.29413ZM7.33825 3.76471H6.41177C4.94984 3.76471 3.76471 4.94984 3.76471 6.41177V7.44475C2.7366 7.80813 2 8.78864 2 9.94119C2 11.0937 2.73659 12.0742 3.76471 12.4376V12.5882C3.76471 14.0502 4.94984 15.2353 6.41177 15.2353H7.33825C7.54264 16.2422 8.43282 17 9.50001 17C10.5672 17 11.4574 16.2422 11.6618 15.2353H12.5882C14.0502 15.2353 15.2353 14.0502 15.2353 12.5882V12.4376C16.2634 12.0742 17 11.0937 17 9.94119C17 8.78864 16.2634 7.80814 15.2353 7.44475V6.41177C15.2353 4.94984 14.0502 3.76471 12.5882 3.76471H11.6618C11.4574 2.75784 10.5672 2 9.50001 2C8.43282 2 7.54264 2.75784 7.33825 3.76471ZM8.25179 3.76471H10.7482C10.5665 3.25065 10.0763 2.88235 9.50001 2.88235C8.92374 2.88235 8.43348 3.25065 8.25179 3.76471ZM11.7059 4.64706V7.29413H14.3529L14.3529 6.41177C14.3529 5.43715 13.5629 4.64706 12.5882 4.64706H11.7059ZM11.7059 8.17648V11.7059H14.3529V8.17648H11.7059ZM11.7059 12.5882V14.3529H12.5882C13.5629 14.3529 14.3529 13.5629 14.3529 12.5882L11.7059 12.5882ZM2.88235 9.94119C2.88235 10.5944 3.23724 11.1647 3.76471 11.4698V8.41257C3.23724 8.71769 2.88235 9.288 2.88235 9.94119ZM16.1176 9.94119C16.1176 10.5944 15.7628 11.1647 15.2353 11.4698V8.41257C15.7628 8.7177 16.1176 9.288 16.1176 9.94119Z" fill="white"/>
</svg>
